<svg id="Layer_1" data-name="Layer 1" xmlns="http://www.w3.org/2000/svg" viewBox="0 0 208.08 200"><defs><style>.cls-1,.cls-2,.cls-3{fill:none;}.cls-2,.cls-3{stroke:#000;stroke-miterlimit:10;}.cls-2{stroke-width:5px;}.cls-3{stroke-width:3px;}</style></defs><title>articon</title><rect class="cls-1" x="3.61" width="200" height="200"/><path class="cls-2" d="M817.92,68.08c-0.26,2.32-3.34,26.28-21.79,38.46-17.27,11.4-40.49,7.53-46.15,6.41-16.74-3.31-23-11-35.9-7.69-9.81,2.49-16.12,9.47-17.95,11.54C684.48,130,689,143.15,683.31,146.28c-11.74,6.4-64.24-30.57-67.95-80.77C611.91,18.88,651.28-29.68,699.65-37,765.74-47.12,823,23.62,817.92,68.08Z" transform="translate(-612.65 46)"/><circle class="cls-2" cx="159.2" cy="114.54" r="20.03"/><circle class="cls-2" cx="145.75" cy="65.45" r="10.99"/><circle class="cls-2" cx="114.08" cy="38.92" r="8.17"/><circle class="cls-2" cx="74.58" cy="38.2" r="6.49"/><path class="cls-3" d="M769.2,66.79" transform="translate(-612.65 46)"/></svg>