<svg id="Layer_1" data-name="Layer 1" xmlns="http://www.w3.org/2000/svg" viewBox="0 0 201.19 200"><defs><style>.cls-1,.cls-2{fill:none;}.cls-2{stroke:#000;stroke-miterlimit:10;stroke-width:5px;}</style></defs><title>bookicon</title><rect class="cls-1" x="0.5" width="200" height="200"/><rect class="cls-2" x="100.44" y="47.41" width="98.26" height="103.44"/><path class="cls-2" d="M812.7,229.29a99.72,99.72,0,0,1-22.72,0c-22-2.54-30.61-11.12-46.52-9.39-5.48.6-13.46,2.59-22.72,9.39V318c4.49-3.94,11.94-9.21,21.64-9.92,13.7-1,20.68,7.93,37.33,11.48,7.16,1.53,18.19,2.5,33-1.57V229.29Z" transform="translate(-615.5 -172.71)"/><rect class="cls-2" x="618" y="220.12" width="98.26" height="103.44" transform="translate(718.76 370.98) rotate(180)"/><path class="cls-2" d="M619.49,229.29a99.72,99.72,0,0,0,22.72,0c22-2.54,30.61-11.12,46.52-9.39,5.48,0.6,13.46,2.59,22.72,9.39V318c-4.49-3.94-11.94-9.21-21.64-9.92-13.7-1-20.68,7.93-37.33,11.48-7.16,1.53-18.19,2.5-33-1.57V229.29Z" transform="translate(-615.5 -172.71)"/></svg>