<svg id="Layer_1" data-name="Layer 1" xmlns="http://www.w3.org/2000/svg" viewBox="0 0 203 200"><defs><style>.cls-1,.cls-2,.cls-3{fill:none;}.cls-2,.cls-3{stroke:#000;stroke-miterlimit:10;}.cls-2{stroke-width:5px;}.cls-3{stroke-width:3px;}</style></defs><title>glassesicon</title><rect class="cls-1" x="1.5" width="200" height="200"/><path class="cls-2" d="M488.67,261.63c-1.88,5.06,1.2,11.32,3.25,15.3,1.46,2.82,5.45,10.6,13.67,13.39,10.13,3.44,18.6-3.46,20.5-5,6.46-5.27,14.21-16.41,11.4-23.83-2.53-6.68-12.32-6.94-23.28-7.22C505,254,491.62,253.66,488.67,261.63Z" transform="translate(-376 -176.36)"/><path class="cls-3" d="M487.3,262.24a10.91,10.91,0,0,0-20,0" transform="translate(-376 -176.36)"/><path class="cls-2" d="M538.73,259.7s22.93-11.67,30.35-16.41,7.42,8.2,7.42,8.2" transform="translate(-376 -176.36)"/><path class="cls-2" d="M466.33,261.63c1.88,5.06-1.2,11.32-3.25,15.3-1.46,2.82-5.45,10.6-13.67,13.39-10.13,3.44-18.6-3.46-20.5-5-6.46-5.27-14.21-16.41-11.4-23.83,2.53-6.68,12.32-6.94,23.28-7.22C450,254,463.38,253.66,466.33,261.63Z" transform="translate(-376 -176.36)"/><path class="cls-2" d="M467.7,262.24a10.91,10.91,0,0,1,20,0" transform="translate(-376 -176.36)"/><path class="cls-2" d="M416.27,259.7S393.34,248,385.92,243.29s-7.42,8.2-7.42,8.2" transform="translate(-376 -176.36)"/></svg>