<?xml version="1.0" encoding="utf-8"?>
<!-- Generator: Adobe Illustrator 16.0.0, SVG Export Plug-In . SVG Version: 6.00 Build 0)  -->
<!DOCTYPE svg PUBLIC "-//W3C//DTD SVG 1.1//EN" "http://www.w3.org/Graphics/SVG/1.1/DTD/svg11.dtd">
<svg version="1.1"
	 id="svg626" xmlns:odm="http://product.corel.com/CGS/11/cddns/" xmlns:sodipodi="http://sodipodi.sourceforge.net/DTD/sodipodi-0.dtd" sodipodi:docname="D:\Dokumenty\Wikipedie\images\svg\Astro\cancer.svg" sodipodi:version="0.34"
	 xmlns="http://www.w3.org/2000/svg" xmlns:xlink="http://www.w3.org/1999/xlink" x="0px" y="0px" width="240px" height="188px"
	 viewBox="0 0 240 188" enable-background="new 0 0 240 188" xml:space="preserve">
<sodipodi:namedview  id="base"></sodipodi:namedview>
<g id="Layer_1" transform="matrix(5.828176,0,0,5.82271,-19181.62,-26091.57)">
	<path id="path630" fill="#FFFFFF" d="M3291.188,4508.947v-3.505c6.753,3.087,13.298,4.615,19.601,4.615
		c4.132,0,7.493-0.531,10.082-1.608c-1.64-0.836-2.878-1.897-3.698-3.167c-0.82-1.27-1.238-2.766-1.238-4.486
		c0-2.251,0.82-4.181,2.444-5.804c1.608-1.608,3.57-2.412,5.821-2.412s4.165,0.804,5.773,2.396c1.592,1.608,2.396,3.521,2.396,5.789
		c0,3.585-2.187,6.576-6.576,8.956c-4.39,2.38-9.889,3.57-16.498,3.57C3303.569,4513.289,3297.539,4511.857,3291.188,4508.947z
		 M3318.104,4500.811c0,1.64,0.595,3.055,1.801,4.245c1.19,1.19,2.637,1.785,4.293,1.785c1.672,0,3.087-0.595,4.261-1.736
		c1.158-1.158,1.737-2.573,1.737-4.245c0-1.704-0.579-3.151-1.753-4.341c-1.174-1.19-2.589-1.785-4.261-1.785
		c-1.688,0-3.119,0.595-4.309,1.785C3318.699,4497.691,3318.104,4499.123,3318.104,4500.811z M3332.367,4485.358v3.505
		c-6.77-3.087-13.298-4.631-19.617-4.631c-4.116,0-7.493,0.531-10.098,1.624c1.672,0.836,2.91,1.897,3.714,3.167
		c0.836,1.271,1.238,2.766,1.238,4.486c0,2.251-0.804,4.181-2.428,5.805c-1.624,1.608-3.57,2.412-5.837,2.412
		c-2.251,0-4.165-0.788-5.756-2.396c-1.592-1.592-2.396-3.521-2.396-5.772c0-3.602,2.187-6.609,6.576-8.989
		c4.374-2.379,9.889-3.569,16.498-3.569C3319.986,4481.001,3326.016,4482.448,3332.367,4485.358z M3305.45,4493.495
		c0-1.656-0.595-3.071-1.801-4.261c-1.206-1.174-2.653-1.769-4.325-1.769c-1.672,0-3.087,0.579-4.245,1.737
		c-1.158,1.157-1.737,2.572-1.737,4.245c0,1.705,0.595,3.151,1.769,4.342c1.157,1.19,2.589,1.785,4.261,1.785
		c1.672,0,3.119-0.595,4.293-1.785C3304.855,4496.598,3305.45,4495.167,3305.45,4493.495z"/>
</g>
</svg>
