<?xml version="1.0" encoding="utf-8"?>
<!-- Generator: Adobe Illustrator 16.0.0, SVG Export Plug-In . SVG Version: 6.00 Build 0)  -->
<!DOCTYPE svg PUBLIC "-//W3C//DTD SVG 1.1//EN" "http://www.w3.org/Graphics/SVG/1.1/DTD/svg11.dtd">
<svg version="1.1"
	 id="svg632" xmlns:odm="http://product.corel.com/CGS/11/cddns/" xmlns:sodipodi="http://sodipodi.sourceforge.net/DTD/sodipodi-0.dtd" sodipodi:docname="D:\Dokumenty\Wikipedie\images\svg\Astro\leo.svg" sodipodi:version="0.34"
	 xmlns="http://www.w3.org/2000/svg" xmlns:xlink="http://www.w3.org/1999/xlink" x="0px" y="0px" width="147px" height="188px"
	 viewBox="0 0 147 188" enable-background="new 0 0 147 188" xml:space="preserve">
<sodipodi:namedview  id="base"></sodipodi:namedview>
<g id="Layer_1" transform="matrix(4.260087,0,0,4.260933,-12024.51,-18381.66)">
	<path id="path636" fill="#FFFFFF" d="M2857.104,4354.647c-2.524,2.315-4.936,3.473-7.252,3.473c-1.994,0-3.682-0.659-5.049-1.994
		c-1.351-1.334-2.026-2.975-2.026-4.92c0-2.604,1.367-6.801,4.1-12.606l2.091-4.454c1.608-3.441,2.412-6.239,2.412-8.377
		c0-2.733-0.788-4.92-2.38-6.576c-1.592-1.672-3.698-2.493-6.319-2.493c-2.46,0-4.438,0.74-5.966,2.203
		c-1.511,1.495-2.267,3.425-2.267,5.821c0,2.219,0.708,4.808,2.123,7.766l0.852,1.769c1.415,2.927,2.122,5.065,2.122,6.464
		c0,2.203-0.852,4.148-2.524,5.788c-1.672,1.64-3.666,2.46-5.949,2.46c-2.348,0-4.357-0.82-5.998-2.477
		c-1.656-1.656-2.476-3.666-2.476-6.045c0-2.284,0.804-4.261,2.444-5.917c1.624-1.656,3.569-2.492,5.821-2.492
		c0.82,0,1.72,0.145,2.701,0.45c-1.56-3.007-2.348-5.66-2.348-7.975c0-3.007,1.077-5.516,3.248-7.509
		c2.187-2.01,4.92-3.007,8.2-3.007c3.602,0,6.496,1.061,8.683,3.167c2.171,2.123,3.264,4.937,3.264,8.442
		c0,1.736-0.177,3.248-0.547,4.502c-0.354,1.271-1.222,3.361-2.573,6.271l-1.496,3.264c-2.669,5.789-4.02,9.519-4.02,11.224
		c0,1.254,0.37,2.283,1.125,3.087c0.74,0.82,1.705,1.222,2.862,1.222c1.528,0,3.28-0.868,5.242-2.605L2857.104,4354.647z
		 M2825.009,4340.482c0,1.704,0.579,3.151,1.72,4.325c1.142,1.158,2.541,1.752,4.213,1.752c1.64,0,3.023-0.595,4.181-1.769
		s1.737-2.605,1.737-4.277c0-1.705-0.579-3.136-1.72-4.31c-1.158-1.158-2.557-1.753-4.229-1.753c-1.64,0-3.023,0.595-4.18,1.769
		C2825.588,4337.395,2825.009,4338.81,2825.009,4340.482z"/>
</g>
</svg>
