<?xml version="1.0" encoding="utf-8"?>
<!-- Generator: Adobe Illustrator 16.0.0, SVG Export Plug-In . SVG Version: 6.00 Build 0)  -->
<!DOCTYPE svg PUBLIC "-//W3C//DTD SVG 1.1//EN" "http://www.w3.org/Graphics/SVG/1.1/DTD/svg11.dtd">
<svg version="1.1"
	 id="svg614" xmlns:odm="http://product.corel.com/CGS/11/cddns/" xmlns:sodipodi="http://sodipodi.sourceforge.net/DTD/sodipodi-0.dtd" sodipodi:docname="D:\Dokumenty\Wikipedie\images\svg\Astro\taurus.svg" sodipodi:version="0.34"
	 xmlns="http://www.w3.org/2000/svg" xmlns:xlink="http://www.w3.org/1999/xlink" x="0px" y="0px" width="180px" height="188px"
	 viewBox="0 0 180 188" enable-background="new 0 0 180 188" xml:space="preserve">
<sodipodi:namedview  id="base"></sodipodi:namedview>
<g id="Layer_1" transform="matrix(4.552447,0,0,4.540583,-8401.163,-13199.48)">
	<path id="path618" fill="#FFFFFF" d="M1859.069,2922.341c-1.431-0.563-2.573-1.286-3.473-2.155
		c-0.884-0.868-1.865-2.267-2.943-4.213l-1.286-2.315c-1.576-2.83-3.377-4.245-5.37-4.245h-0.579v-2.412h1.592
		c2.83,0,5.403,1.994,7.702,5.966l1.753,3.087c1.19,2.026,2.412,3.441,3.698,4.245c1.286,0.82,2.959,1.222,5.033,1.222
		s3.746-0.402,5.033-1.222c1.286-0.804,2.508-2.219,3.682-4.245l1.785-3.087c2.283-3.972,4.856-5.966,7.67-5.966h1.592v2.412h-0.563
		c-2.01,0-3.811,1.415-5.386,4.245l-1.286,2.315c-1.077,1.946-2.058,3.344-2.943,4.213c-0.901,0.868-2.058,1.592-3.473,2.155
		c2.476,1.367,4.373,3.135,5.724,5.274c1.351,2.138,2.01,4.502,2.01,7.042c0,3.698-1.367,6.914-4.116,9.648
		c-2.766,2.733-5.997,4.1-9.728,4.1s-6.962-1.367-9.728-4.1c-2.766-2.733-4.148-5.949-4.148-9.648c0-2.541,0.675-4.904,2.026-7.042
		C1854.695,2925.477,1856.592,2923.708,1859.069,2922.341z M1865.195,2945.174c2.927,0,5.419-1.013,7.509-3.071
		c2.074-2.026,3.12-4.486,3.12-7.364c0-2.927-1.045-5.419-3.103-7.461c-2.058-2.058-4.567-3.071-7.525-3.071
		c-2.943,0-5.451,1.013-7.541,3.071c-2.058,2.042-3.103,4.534-3.103,7.461c0,2.878,1.045,5.338,3.119,7.364
		C1859.744,2944.161,1862.252,2945.174,1865.195,2945.174z"/>
</g>
</svg>
