<?xml version="1.0" encoding="utf-8"?>
<!-- Generator: Adobe Illustrator 16.0.0, SVG Export Plug-In . SVG Version: 6.00 Build 0)  -->
<!DOCTYPE svg PUBLIC "-//W3C//DTD SVG 1.1//EN" "http://www.w3.org/Graphics/SVG/1.1/DTD/svg11.dtd">
<svg version="1.1"
	 id="svg638" xmlns:odm="http://product.corel.com/CGS/11/cddns/" xmlns:sodipodi="http://sodipodi.sourceforge.net/DTD/sodipodi-0.dtd" sodipodi:docname="D:\Dokumenty\Wikipedie\images\svg\Astro\virgo.svg" sodipodi:version="0.34"
	 xmlns="http://www.w3.org/2000/svg" xmlns:xlink="http://www.w3.org/1999/xlink" x="0px" y="0px" width="155px" height="188px"
	 viewBox="0 0 155 188" enable-background="new 0 0 155 188" xml:space="preserve">
<sodipodi:namedview  id="base"></sodipodi:namedview>
<g id="Layer_1" transform="matrix(4.538455,0,0,4.531784,-13030.44,-20143.78)">
	<path id="path642" fill="#FFFFFF" d="M2877.003,4457.638v20.228h-3.232v-23.428c0-3.248-0.884-6.207-2.653-8.844h3.409
		c1.206,1.656,2.026,3.795,2.476,6.384c1.094-2.686,2.364-4.808,3.795-6.384l3.167-0.595c1.447,1.865,2.364,4.341,2.75,7.429
		c0.74-2.332,2.058-4.615,3.939-6.834l3.119-0.595c1.753,2.428,2.621,5.113,2.621,8.056v6.142c0.868-2.46,1.801-4.406,2.766-5.788
		l2.669-0.981c2.299,3.553,3.441,7.3,3.441,11.223c0,3.12-0.691,6.03-2.058,8.763s-3.441,5.274-6.174,7.638
		c0.257,1.897,1.367,4.036,3.328,6.432h-3.795c-0.917-1.158-1.737-2.702-2.444-4.615c-2.01,1.142-4.486,1.946-7.413,2.412v-2.766
		c2.766-0.562,5.017-1.383,6.786-2.428c-0.225-1.399-0.338-2.797-0.338-4.213v-19.616c0-3.2-0.45-5.612-1.383-7.252
		c-2.283,2.46-3.972,5.933-5.065,10.387v19.472h-3.248v-21.514c0-4.004-0.482-6.786-1.415-8.345
		C2879.817,4450.611,2878.145,4453.811,2877.003,4457.638z M2896.395,4477.029c1.897-1.929,3.297-3.987,4.245-6.19
		c0.932-2.203,1.399-4.55,1.399-7.011c0-2.589-0.563-5.097-1.688-7.525c-1.608,1.978-2.91,4.615-3.956,7.911V4477.029z"/>
</g>
</svg>
